{
	"asset":{
		"generator":"Khronos glTF Blender I/O v3.6.28",
		"version":"2.0"
	},
	"scene":0,
	"scenes":[
		{
			"name":"Scene",
			"nodes":[
				0
			]
		}
	],
	"nodes":[
		{
			"mesh":0,
			"name":"arm"
		}
	],
	"materials":[
		{
			"doubleSided":true,
			"name":"Material_001",
			"pbrMetallicRoughness":{
				"baseColorFactor":[
					0.17882320284843445,
					0.17882320284843445,
					0.17882320284843445,
					1
				],
				"metallicFactor":0.07500000298023224,
				"roughnessFactor":0.5
			}
		}
	],
	"meshes":[
		{
			"name":"arm",
			"primitives":[
				{
					"attributes":{
						"POSITION":0,
						"NORMAL":1
					},
					"indices":2,
					"material":0
				}
			]
		}
	],
	"accessors":[
		{
			"bufferView":0,
			"componentType":5126,
			"count":24108,
			"max":[
				0.041249990463256836,
				0,
				0.45124998688697815
			],
			"min":[
				-0.041249990463256836,
				-0.04300044849514961,
				-0.041249990463256836
			],
			"type":"VEC3"
		},
		{
			"bufferView":1,
			"componentType":5126,
			"count":24108,
			"type":"VEC3"
		},
		{
			"bufferView":2,
			"componentType":5123,
			"count":24648,
			"type":"SCALAR"
		}
	],
	"bufferViews":[
		{
			"buffer":0,
			"byteLength":289296,
			"byteOffset":0,
			"target":34962
		},
		{
			"buffer":0,
			"byteLength":289296,
			"byteOffset":289296,
			"target":34962
		},
		{
			"buffer":0,
			"byteLength":49296,
			"byteOffset":578592,
			"target":34963
		}
	],
	"buffers":[
		{
			"byteLength":627888,
			"uri":"arm.bin"
		}
	]
}
