{
	"asset":{
		"generator":"Khronos glTF Blender I/O v3.6.28",
		"version":"2.0"
	},
	"scene":0,
	"scenes":[
		{
			"name":"Scene",
			"nodes":[
				0
			]
		}
	],
	"nodes":[
		{
			"mesh":0,
			"name":"finger_proximal"
		}
	],
	"materials":[
		{
			"doubleSided":true,
			"emissiveFactor":[
				0.10000000149011612,
				0.10000000149011612,
				0.10000000149011612
			],
			"name":"Material_001",
			"pbrMetallicRoughness":{
				"baseColorFactor":[
					0.5960783362388611,
					0.5960783362388611,
					0.5960783362388611,
					1
				],
				"metallicFactor":0,
				"roughnessFactor":0.5
			}
		}
	],
	"meshes":[
		{
			"name":"finger proximal",
			"primitives":[
				{
					"attributes":{
						"POSITION":0,
						"NORMAL":1
					},
					"indices":2,
					"material":0
				}
			]
		}
	],
	"accessors":[
		{
			"bufferView":0,
			"componentType":5126,
			"count":6717,
			"max":[
				0.0506017804145813,
				0.011471089906990528,
				0.02126597985625267
			],
			"min":[
				-0.007344602607190609,
				-0.011471030302345753,
				-0.005222617648541927
			],
			"type":"VEC3"
		},
		{
			"bufferView":1,
			"componentType":5126,
			"count":6717,
			"type":"VEC3"
		},
		{
			"bufferView":2,
			"componentType":5123,
			"count":8130,
			"type":"SCALAR"
		}
	],
	"bufferViews":[
		{
			"buffer":0,
			"byteLength":80604,
			"byteOffset":0,
			"target":34962
		},
		{
			"buffer":0,
			"byteLength":80604,
			"byteOffset":80604,
			"target":34962
		},
		{
			"buffer":0,
			"byteLength":16260,
			"byteOffset":161208,
			"target":34963
		}
	],
	"buffers":[
		{
			"byteLength":177468,
			"uri":"finger_proximal.bin"
		}
	]
}
