{
	"asset":{
		"generator":"Khronos glTF Blender I/O v3.6.28",
		"version":"2.0"
	},
	"scene":0,
	"scenes":[
		{
			"name":"Scene",
			"nodes":[
				0
			]
		}
	],
	"nodes":[
		{
			"mesh":0,
			"name":"finger_distal"
		}
	],
	"materials":[
		{
			"doubleSided":true,
			"emissiveFactor":[
				0.10000000149011612,
				0.10000000149011612,
				0.10000000149011612
			],
			"name":"Material_001",
			"pbrMetallicRoughness":{
				"baseColorFactor":[
					0.5960783362388611,
					0.5960783362388611,
					0.5960783362388611,
					1
				],
				"metallicFactor":0,
				"roughnessFactor":0.5
			}
		}
	],
	"meshes":[
		{
			"name":"finger distal",
			"primitives":[
				{
					"attributes":{
						"POSITION":0,
						"NORMAL":1
					},
					"indices":2,
					"material":0
				}
			]
		}
	],
	"accessors":[
		{
			"bufferView":0,
			"componentType":5126,
			"count":4567,
			"max":[
				0.043662481009960175,
				0.011249950155615807,
				0.014583169482648373
			],
			"min":[
				-0.009498237632215023,
				-0.011249950155615807,
				-0.00549995806068182
			],
			"type":"VEC3"
		},
		{
			"bufferView":1,
			"componentType":5126,
			"count":4567,
			"type":"VEC3"
		},
		{
			"bufferView":2,
			"componentType":5123,
			"count":5826,
			"type":"SCALAR"
		}
	],
	"bufferViews":[
		{
			"buffer":0,
			"byteLength":54804,
			"byteOffset":0,
			"target":34962
		},
		{
			"buffer":0,
			"byteLength":54804,
			"byteOffset":54804,
			"target":34962
		},
		{
			"buffer":0,
			"byteLength":11652,
			"byteOffset":109608,
			"target":34963
		}
	],
	"buffers":[
		{
			"byteLength":121260,
			"uri":"finger_distal.bin"
		}
	]
}
