{
	"asset":{
		"generator":"Khronos glTF Blender I/O v3.6.28",
		"version":"2.0"
	},
	"scene":0,
	"scenes":[
		{
			"name":"Scene",
			"nodes":[
				0
			]
		}
	],
	"nodes":[
		{
			"mesh":0,
			"name":"forearm"
		}
	],
	"materials":[
		{
			"doubleSided":true,
			"name":"Material_001",
			"pbrMetallicRoughness":{
				"baseColorFactor":[
					0.17882320284843445,
					0.17882320284843445,
					0.17882320284843445,
					1
				],
				"metallicFactor":0.07500000298023224,
				"roughnessFactor":0.5
			}
		}
	],
	"meshes":[
		{
			"name":"forearm",
			"primitives":[
				{
					"attributes":{
						"POSITION":0,
						"NORMAL":1
					},
					"indices":2,
					"material":0
				}
			]
		}
	],
	"accessors":[
		{
			"bufferView":0,
			"componentType":5126,
			"count":20460,
			"max":[
				0.041249990463256836,
				0.019999979063868523,
				0.041249990463256836
			],
			"min":[
				-0.041249990463256836,
				-0.042999979108572006,
				-0.20724990963935852
			],
			"type":"VEC3"
		},
		{
			"bufferView":1,
			"componentType":5126,
			"count":20460,
			"type":"VEC3"
		},
		{
			"bufferView":2,
			"componentType":5123,
			"count":21018,
			"type":"SCALAR"
		}
	],
	"bufferViews":[
		{
			"buffer":0,
			"byteLength":245520,
			"byteOffset":0,
			"target":34962
		},
		{
			"buffer":0,
			"byteLength":245520,
			"byteOffset":245520,
			"target":34962
		},
		{
			"buffer":0,
			"byteLength":42036,
			"byteOffset":491040,
			"target":34963
		}
	],
	"buffers":[
		{
			"byteLength":533076,
			"uri":"forearm.bin"
		}
	]
}
