{
	"asset":{
		"generator":"Khronos glTF Blender I/O v3.6.28",
		"version":"2.0"
	},
	"scene":0,
	"scenes":[
		{
			"name":"Scene",
			"nodes":[
				0
			]
		}
	],
	"nodes":[
		{
			"mesh":0,
			"name":"hand_3finger"
		}
	],
	"materials":[
		{
			"doubleSided":true,
			"name":"Material_001",
			"pbrMetallicRoughness":{
				"baseColorFactor":[
					0.17882320284843445,
					0.17882320284843445,
					0.17882320284843445,
					1
				],
				"metallicFactor":0.07500000298023224,
				"roughnessFactor":0.5
			}
		}
	],
	"meshes":[
		{
			"name":"hand 3finger",
			"primitives":[
				{
					"attributes":{
						"POSITION":0,
						"NORMAL":1
					},
					"indices":2,
					"material":0
				}
			]
		}
	],
	"accessors":[
		{
			"bufferView":0,
			"componentType":5126,
			"count":80870,
			"max":[
				0.046362221240997314,
				0,
				0.05083661898970604
			],
			"min":[
				-0.046362221240997314,
				-0.1210068017244339,
				-0.054254937916994095
			],
			"type":"VEC3"
		},
		{
			"bufferView":1,
			"componentType":5126,
			"count":80870,
			"type":"VEC3"
		},
		{
			"bufferView":2,
			"componentType":5125,
			"count":83724,
			"type":"SCALAR"
		}
	],
	"bufferViews":[
		{
			"buffer":0,
			"byteLength":970440,
			"byteOffset":0,
			"target":34962
		},
		{
			"buffer":0,
			"byteLength":970440,
			"byteOffset":970440,
			"target":34962
		},
		{
			"buffer":0,
			"byteLength":334896,
			"byteOffset":1940880,
			"target":34963
		}
	],
	"buffers":[
		{
			"byteLength":2275776,
			"uri":"hand_3finger.bin"
		}
	]
}
