{
	"asset":{
		"generator":"Khronos glTF Blender I/O v3.6.28",
		"version":"2.0"
	},
	"scene":0,
	"scenes":[
		{
			"name":"Scene",
			"nodes":[
				0
			]
		}
	],
	"nodes":[
		{
			"mesh":0,
			"name":"ring_small"
		}
	],
	"materials":[
		{
			"doubleSided":true,
			"emissiveFactor":[
				0.10000000149011612,
				0.10000000149011612,
				0.10000000149011612
			],
			"name":"Material_001",
			"pbrMetallicRoughness":{
				"baseColorFactor":[
					0.6274510025978088,
					0.6274510025978088,
					0.6274510025978088,
					1
				],
				"metallicFactor":0,
				"roughnessFactor":0.5
			}
		}
	],
	"meshes":[
		{
			"name":"ring small",
			"primitives":[
				{
					"attributes":{
						"POSITION":0,
						"NORMAL":1
					},
					"indices":2,
					"material":0
				}
			]
		}
	],
	"accessors":[
		{
			"bufferView":0,
			"componentType":5126,
			"count":802,
			"max":[
				0.03404998034238815,
				0.009749948047101498,
				0.03393368795514107
			],
			"min":[
				-0.03404998034238815,
				-0.009749948047101498,
				-0.03393368795514107
			],
			"type":"VEC3"
		},
		{
			"bufferView":1,
			"componentType":5126,
			"count":802,
			"type":"VEC3"
		},
		{
			"bufferView":2,
			"componentType":5123,
			"count":1356,
			"type":"SCALAR"
		}
	],
	"bufferViews":[
		{
			"buffer":0,
			"byteLength":9624,
			"byteOffset":0,
			"target":34962
		},
		{
			"buffer":0,
			"byteLength":9624,
			"byteOffset":9624,
			"target":34962
		},
		{
			"buffer":0,
			"byteLength":2712,
			"byteOffset":19248,
			"target":34963
		}
	],
	"buffers":[
		{
			"byteLength":21960,
			"uri":"ring_small.bin"
		}
	]
}
