{
	"asset":{
		"generator":"Khronos glTF Blender I/O v3.6.28",
		"version":"2.0"
	},
	"scene":0,
	"scenes":[
		{
			"name":"Scene",
			"nodes":[
				0
			]
		}
	],
	"nodes":[
		{
			"mesh":0,
			"name":"wrist"
		}
	],
	"materials":[
		{
			"doubleSided":true,
			"name":"Material_001",
			"pbrMetallicRoughness":{
				"baseColorFactor":[
					0.17882320284843445,
					0.17882320284843445,
					0.17882320284843445,
					1
				],
				"metallicFactor":0.07500000298023224,
				"roughnessFactor":0.5
			}
		}
	],
	"meshes":[
		{
			"name":"wrist",
			"primitives":[
				{
					"attributes":{
						"POSITION":0,
						"NORMAL":1
					},
					"indices":2,
					"material":0
				}
			]
		}
	],
	"accessors":[
		{
			"bufferView":0,
			"componentType":5126,
			"count":10517,
			"max":[
				0.031500041484832764,
				0,
				0.05274759978055954
			],
			"min":[
				-0.031500041484832764,
				-0.09136152267456055,
				-0.03149997815489769
			],
			"type":"VEC3"
		},
		{
			"bufferView":1,
			"componentType":5126,
			"count":10517,
			"type":"VEC3"
		},
		{
			"bufferView":2,
			"componentType":5123,
			"count":11058,
			"type":"SCALAR"
		}
	],
	"bufferViews":[
		{
			"buffer":0,
			"byteLength":126204,
			"byteOffset":0,
			"target":34962
		},
		{
			"buffer":0,
			"byteLength":126204,
			"byteOffset":126204,
			"target":34962
		},
		{
			"buffer":0,
			"byteLength":22116,
			"byteOffset":252408,
			"target":34963
		}
	],
	"buffers":[
		{
			"byteLength":274524,
			"uri":"wrist.bin"
		}
	]
}
